<svg width="56" height="56" viewBox="0 0 56 56" fill="none" xmlns="http://www.w3.org/2000/svg">
<mask id="mask0_1_13" style="mask-type:alpha" maskUnits="userSpaceOnUse" x="0" y="0" width="56" height="56">
<rect x="0.5" y="0.5" width="55" height="55" fill="#D9D9D9" stroke="#F38E5E"/>
</mask>
<g mask="url(#mask0_1_13)">
<path d="M28 3.75C33.2264 3.75 37.8225 5.57896 41.7988 9.24609C45.7608 12.9001 47.75 17.8088 47.75 24C47.75 28.0998 46.12 32.583 42.8242 37.4541C39.5557 42.2848 34.6167 47.5229 28 53.1699C21.3833 47.5229 16.4443 42.2848 13.1758 37.4541C9.88002 32.583 8.25 28.0998 8.25 24C8.25 17.8088 10.2392 12.9001 14.2012 9.24609C18.1775 5.57896 22.7736 3.75 28 3.75Z" fill="url(#paint0_linear_1_13)" stroke="#3931AF" stroke-width="0.5"/>
</g>
<defs>
<linearGradient id="paint0_linear_1_13" x1="8" y1="3.5" x2="48" y2="3.5" gradientUnits="userSpaceOnUse">
<stop stop-color="#272270"/>
<stop offset="1" stop-color="#3931AF"/>
</linearGradient>
</defs>
</svg>
