<svg width="56" height="56" viewBox="0 0 56 56" fill="none" xmlns="http://www.w3.org/2000/svg">
<mask id="mask0_72_1970" style="mask-type:alpha" maskUnits="userSpaceOnUse" x="0" y="0" width="56" height="56">
<rect x="0.5" y="0.5" width="55" height="55" fill="#D9D9D9" stroke="#F38E5E"/>
</mask>
<g mask="url(#mask0_72_1970)">
<path d="M28 3.75C33.2264 3.75 37.8225 5.57896 41.7988 9.24609C45.7608 12.9001 47.75 17.8089 47.75 24C47.75 28.0999 46.12 32.583 42.8242 37.4541C39.5557 42.2848 34.6167 47.5229 28 53.1699C21.3833 47.5229 16.4443 42.2848 13.1758 37.4541C9.88002 32.583 8.25 28.0999 8.25 24C8.25 17.8089 10.2392 12.9001 14.2012 9.24609C18.1775 5.57896 22.7736 3.75 28 3.75Z" fill="url(#paint0_linear_72_1970)" stroke="#3931AF" stroke-width="0.5"/>
<path d="M15.784 21.232C15.784 20.704 15.432 20.32 14.856 20.32C14.248 20.32 13.928 20.768 13.896 21.296H11.24C11.432 19.472 12.76 18.016 14.856 18.016C17.016 18.016 18.376 19.248 18.376 21.072C18.376 22.336 17.48 23.232 16.488 24.192L14.872 25.792H18.408V28H11.288V26.352L14.664 22.992C15.336 22.304 15.784 21.808 15.784 21.232ZM21.7714 24.768C21.7714 25.552 22.3154 26.096 23.0994 26.096C23.8674 26.096 24.4434 25.552 24.4434 24.768C24.4434 23.968 23.8674 23.424 23.0994 23.424C22.3154 23.424 21.7714 23.968 21.7714 24.768ZM26.6514 20.848H24.2354C24.0914 20.416 23.7554 20.112 23.1954 20.112C22.2514 20.112 21.6914 21.152 21.6754 22.176V22.256C21.9634 21.84 22.6354 21.52 23.4834 21.52C25.4834 21.52 26.7314 22.944 26.7314 24.704C26.7314 26.672 25.3394 28.16 23.0834 28.16C21.8194 28.16 20.7314 27.568 20.0754 26.528C19.4994 25.664 19.2594 24.608 19.2594 23.312C19.2594 20.24 20.6994 18.016 23.1794 18.016C25.1314 18.016 26.3314 19.12 26.6514 20.848ZM31.9246 21.232C31.9246 20.704 31.5726 20.32 30.9966 20.32C30.3886 20.32 30.0686 20.768 30.0366 21.296H27.3806C27.5726 19.472 28.9006 18.016 30.9966 18.016C33.1566 18.016 34.5166 19.248 34.5166 21.072C34.5166 22.336 33.6206 23.232 32.6286 24.192L31.0126 25.792H34.5486V28H27.4286V26.352L30.8046 22.992C31.4766 22.304 31.9246 21.808 31.9246 21.232ZM35.4915 26.608C35.4915 25.76 36.1475 25.12 36.9635 25.12C37.7955 25.12 38.4515 25.76 38.4515 26.608C38.4515 27.456 37.7955 28.112 36.9635 28.112C36.1475 28.112 35.4915 27.456 35.4915 26.608ZM43.9541 21.408C43.9541 20.624 43.4101 20.08 42.6261 20.08C41.8581 20.08 41.2821 20.624 41.2821 21.408C41.2821 22.208 41.8581 22.752 42.6261 22.752C43.4101 22.752 43.9541 22.208 43.9541 21.408ZM39.0741 25.328H41.4901C41.6341 25.76 41.9701 26.064 42.5301 26.064C43.4741 26.064 44.0341 25.024 44.0501 24V23.92C43.7621 24.336 43.0901 24.656 42.2421 24.656C40.2421 24.656 38.9941 23.232 38.9941 21.472C38.9941 19.504 40.3861 18.016 42.6421 18.016C43.9061 18.016 44.9941 18.608 45.6501 19.648C46.2261 20.512 46.4661 21.568 46.4661 22.864C46.4661 25.936 45.0261 28.16 42.5461 28.16C40.5941 28.16 39.3941 27.056 39.0741 25.328Z" fill="white"/>
</g>
<defs>
<linearGradient id="paint0_linear_72_1970" x1="8" y1="3.5" x2="48" y2="3.5" gradientUnits="userSpaceOnUse">
<stop stop-color="#272270"/>
<stop offset="1" stop-color="#3931AF"/>
</linearGradient>
</defs>
</svg>
