<svg width="56" height="56" viewBox="0 0 56 56" fill="none" xmlns="http://www.w3.org/2000/svg">
<mask id="mask0_79_1554" style="mask-type:alpha" maskUnits="userSpaceOnUse" x="0" y="0" width="56" height="56">
<rect x="0.5" y="0.5" width="55" height="55" fill="#D9D9D9" stroke="#F38E5E"/>
</mask>
<g mask="url(#mask0_79_1554)">
<path d="M28 3.75C33.2264 3.75 37.8225 5.57896 41.7988 9.24609C45.7608 12.9001 47.75 17.8089 47.75 24C47.75 28.0999 46.12 32.583 42.8242 37.4541C39.5557 42.2848 34.6167 47.5229 28 53.1699C21.3833 47.5229 16.4443 42.2848 13.1758 37.4541C9.88002 32.583 8.25 28.0999 8.25 24C8.25 17.8089 10.2392 12.9001 14.2012 9.24609C18.1775 5.57896 22.7736 3.75 28 3.75Z" fill="#E1DFFF" stroke="#BAB6F4" stroke-width="0.5"/>
<path d="M15.784 21.232C15.784 20.704 15.432 20.32 14.856 20.32C14.248 20.32 13.928 20.768 13.896 21.296H11.24C11.432 19.472 12.76 18.016 14.856 18.016C17.016 18.016 18.376 19.248 18.376 21.072C18.376 22.336 17.48 23.232 16.488 24.192L14.872 25.792H18.408V28H11.288V26.352L14.664 22.992C15.336 22.304 15.784 21.808 15.784 21.232ZM25.9474 19.904L22.9714 28H20.3794L23.2434 20.384H19.0674V18.176H25.9474V19.904ZM30.2671 26.176C30.9871 26.176 31.5151 25.744 31.5151 25.088C31.5151 24.416 30.9871 24 30.2671 24C29.5631 24 29.0351 24.416 29.0351 25.088C29.0351 25.744 29.5631 26.176 30.2671 26.176ZM30.2671 21.952C30.8911 21.952 31.3711 21.552 31.3711 20.96C31.3711 20.336 30.8911 19.936 30.2671 19.936C29.6591 19.936 29.1631 20.336 29.1631 20.96C29.1631 21.552 29.6591 21.952 30.2671 21.952ZM30.2671 28.16C28.2191 28.16 26.5711 27.088 26.5711 25.28C26.5711 24.128 27.2591 23.312 28.1551 23.008C27.3551 22.624 26.8751 21.84 26.8751 20.88C26.8751 19.024 28.4751 18.016 30.2671 18.016C32.0751 18.016 33.6591 19.024 33.6591 20.88C33.6591 21.84 33.1791 22.624 32.3951 23.008C33.2751 23.312 33.9791 24.128 33.9791 25.28C33.9791 27.088 32.3151 28.16 30.2671 28.16ZM34.6478 26.608C34.6478 25.76 35.3038 25.12 36.1198 25.12C36.9518 25.12 37.6078 25.76 37.6078 26.608C37.6078 27.456 36.9518 28.112 36.1198 28.112C35.3038 28.112 34.6478 27.456 34.6478 26.608ZM43.1104 21.408C43.1104 20.624 42.5664 20.08 41.7824 20.08C41.0144 20.08 40.4384 20.624 40.4384 21.408C40.4384 22.208 41.0144 22.752 41.7824 22.752C42.5664 22.752 43.1104 22.208 43.1104 21.408ZM38.2304 25.328H40.6464C40.7904 25.76 41.1264 26.064 41.6864 26.064C42.6304 26.064 43.1904 25.024 43.2064 24V23.92C42.9184 24.336 42.2464 24.656 41.3984 24.656C39.3984 24.656 38.1504 23.232 38.1504 21.472C38.1504 19.504 39.5424 18.016 41.7984 18.016C43.0624 18.016 44.1504 18.608 44.8064 19.648C45.3824 20.512 45.6224 21.568 45.6224 22.864C45.6224 25.936 44.1824 28.16 41.7024 28.16C39.7504 28.16 38.5504 27.056 38.2304 25.328Z" fill="#272270"/>
</g>
</svg>
