<svg width="161" height="33" viewBox="0 0 161 33" fill="none" xmlns="http://www.w3.org/2000/svg">
<g filter="url(#filter0_i_59_200)">
<rect width="161" height="33" rx="16.5" fill="#E1DFFF"/>
<rect x="46" y="3" width="112" height="27" rx="13.5" fill="url(#paint0_linear_59_200)"/>
<path d="M63.104 12.676H65.68V22.5H63.104V18.612H59.312V22.5H56.736V12.676H59.312V16.404H63.104V12.676ZM69.5903 15.3V22.5H67.0783V15.3H69.5903ZM69.7663 13.348C69.7663 14.164 69.1103 14.692 68.3423 14.692C67.5743 14.692 66.9183 14.164 66.9183 13.348C66.9183 12.516 67.5743 11.988 68.3423 11.988C69.1103 11.988 69.7663 12.516 69.7663 13.348ZM75.5613 22.5V21.924C75.2253 22.308 74.5213 22.66 73.7853 22.66C71.7053 22.66 70.5693 20.98 70.5693 18.9C70.5693 16.82 71.7053 15.14 73.7853 15.14C74.5213 15.14 75.2253 15.492 75.5613 15.876V12.1H78.0733V22.5H75.5613ZM75.5613 19.844V17.94C75.3693 17.556 74.9373 17.268 74.4573 17.268C73.5933 17.268 73.0813 17.972 73.0813 18.9C73.0813 19.828 73.5933 20.516 74.4573 20.516C74.9533 20.516 75.3693 20.244 75.5613 19.844ZM83.758 19.988H86.078C85.822 21.652 84.574 22.66 82.702 22.66C80.494 22.66 79.038 21.14 79.038 18.9C79.038 16.676 80.574 15.14 82.654 15.14C84.862 15.14 86.11 16.612 86.11 18.756V19.38H81.454C81.534 20.244 81.982 20.708 82.702 20.708C83.214 20.708 83.614 20.484 83.758 19.988ZM82.654 17.092C82.062 17.092 81.662 17.46 81.502 18.132H83.678C83.646 17.54 83.278 17.092 82.654 17.092ZM94.6338 19.444H92.8738V22.5H90.3298V12.676H94.6338C96.7618 12.676 98.2018 13.876 98.2018 16.068C98.2018 18.244 96.7618 19.444 94.6338 19.444ZM95.7058 16.068C95.7058 15.316 95.2898 14.836 94.3618 14.836H92.8738V17.3H94.3618C95.2898 17.3 95.7058 16.804 95.7058 16.068ZM104.067 15.268V17.684C103.763 17.524 103.427 17.46 103.027 17.46C102.339 17.46 101.875 17.764 101.747 18.276V22.5H99.2345V15.3H101.747V15.94C102.099 15.46 102.659 15.14 103.379 15.14C103.699 15.14 103.955 15.204 104.067 15.268ZM107.59 15.3V22.5H105.078V15.3H107.59ZM107.766 13.348C107.766 14.164 107.11 14.692 106.342 14.692C105.574 14.692 104.918 14.164 104.918 13.348C104.918 12.516 105.574 11.988 106.342 11.988C107.11 11.988 107.766 12.516 107.766 13.348ZM108.569 18.9C108.569 16.676 110.041 15.14 112.201 15.14C114.137 15.14 115.337 16.292 115.545 17.972H113.113C113.049 17.54 112.713 17.22 112.201 17.22C111.497 17.22 111.049 17.876 111.049 18.9C111.049 19.924 111.497 20.564 112.201 20.564C112.713 20.564 113.049 20.26 113.113 19.828H115.545C115.337 21.492 114.137 22.66 112.201 22.66C110.041 22.66 108.569 21.124 108.569 18.9ZM120.867 19.988H123.187C122.931 21.652 121.683 22.66 119.811 22.66C117.603 22.66 116.147 21.14 116.147 18.9C116.147 16.676 117.683 15.14 119.763 15.14C121.971 15.14 123.219 16.612 123.219 18.756V19.38H118.563C118.643 20.244 119.091 20.708 119.811 20.708C120.323 20.708 120.723 20.484 120.867 19.988ZM119.763 17.092C119.171 17.092 118.771 17.46 118.611 18.132H120.787C120.755 17.54 120.387 17.092 119.763 17.092Z" fill="white"/>
<path d="M137.12 20.5L140 17.62L142.88 20.5L144 19.38L141.12 16.5L144 13.62L142.88 12.5L140 15.38L137.12 12.5L136 13.62L138.88 16.5L136 19.38L137.12 20.5ZM140 24.5C138.893 24.5 137.853 24.29 136.88 23.87C135.907 23.45 135.06 22.88 134.34 22.16C133.62 21.44 133.05 20.5933 132.63 19.62C132.21 18.6467 132 17.6067 132 16.5C132 15.3933 132.21 14.3533 132.63 13.38C133.05 12.4067 133.62 11.56 134.34 10.84C135.06 10.12 135.907 9.55 136.88 9.13C137.853 8.71 138.893 8.5 140 8.5C141.107 8.5 142.147 8.71 143.12 9.13C144.093 9.55 144.94 10.12 145.66 10.84C146.38 11.56 146.95 12.4067 147.37 13.38C147.79 14.3533 148 15.3933 148 16.5C148 17.6067 147.79 18.6467 147.37 19.62C146.95 20.5933 146.38 21.44 145.66 22.16C144.94 22.88 144.093 23.45 143.12 23.87C142.147 24.29 141.107 24.5 140 24.5ZM140 22.9C141.787 22.9 143.3 22.28 144.54 21.04C145.78 19.8 146.4 18.2867 146.4 16.5C146.4 14.7133 145.78 13.2 144.54 11.96C143.3 10.72 141.787 10.1 140 10.1C138.213 10.1 136.7 10.72 135.46 11.96C134.22 13.2 133.6 14.7133 133.6 16.5C133.6 18.2867 134.22 19.8 135.46 21.04C136.7 22.28 138.213 22.9 140 22.9Z" fill="white"/>
</g>
<defs>
<filter id="filter0_i_59_200" x="0" y="0" width="161" height="36" filterUnits="userSpaceOnUse" color-interpolation-filters="sRGB">
<feFlood flood-opacity="0" result="BackgroundImageFix"/>
<feBlend mode="normal" in="SourceGraphic" in2="BackgroundImageFix" result="shape"/>
<feColorMatrix in="SourceAlpha" type="matrix" values="0 0 0 0 0 0 0 0 0 0 0 0 0 0 0 0 0 0 127 0" result="hardAlpha"/>
<feMorphology radius="3" operator="erode" in="SourceAlpha" result="effect1_innerShadow_59_200"/>
<feOffset dy="3"/>
<feGaussianBlur stdDeviation="2"/>
<feComposite in2="hardAlpha" operator="arithmetic" k2="-1" k3="1"/>
<feColorMatrix type="matrix" values="0 0 0 0 0 0 0 0 0 0 0 0 0 0 0 0 0 0 0.25 0"/>
<feBlend mode="normal" in2="shape" result="effect1_innerShadow_59_200"/>
</filter>
<linearGradient id="paint0_linear_59_200" x1="46" y1="3" x2="158" y2="3" gradientUnits="userSpaceOnUse">
<stop stop-color="#272270"/>
<stop offset="1" stop-color="#3931AF"/>
</linearGradient>
</defs>
</svg>
