<svg width="161" height="33" viewBox="0 0 161 33" fill="none" xmlns="http://www.w3.org/2000/svg">
<g filter="url(#filter0_i_59_193)">
<rect width="161" height="33" rx="16.5" fill="#E1DFFF"/>
<rect width="161" height="33" rx="16.5" fill="white"/>
<rect x="3.5" y="3.5" width="117" height="26" rx="13" fill="url(#paint0_linear_59_193)"/>
<rect x="3.5" y="3.5" width="117" height="26" rx="13" stroke="url(#paint1_linear_59_193)"/>
<path d="M37.192 19.588H39.864C40.072 20.26 40.648 20.596 41.448 20.596C42.232 20.596 42.776 20.26 42.776 19.652C42.776 19.188 42.472 18.98 41.848 18.836L39.96 18.436C38.52 18.116 37.432 17.364 37.432 15.7C37.432 13.78 39.032 12.516 41.208 12.516C43.608 12.516 44.968 13.828 45.24 15.524H42.728C42.52 14.98 42.072 14.564 41.224 14.564C40.488 14.564 39.992 14.884 39.992 15.428C39.992 15.86 40.296 16.1 40.808 16.212L42.728 16.66C44.408 17.06 45.336 17.972 45.336 19.492C45.336 21.508 43.64 22.66 41.496 22.66C39.144 22.66 37.544 21.524 37.192 19.588ZM46.3751 22.5V12.1H48.8871V15.924C49.2871 15.476 49.9911 15.14 50.8231 15.14C52.4231 15.14 53.3671 16.18 53.3671 17.78V22.5H50.8711V18.388C50.8711 17.796 50.5671 17.364 49.9271 17.364C49.4311 17.364 49.0151 17.652 48.8871 18.148V22.5H46.3751ZM61.648 18.9C61.648 21.124 60.16 22.66 57.968 22.66C55.792 22.66 54.288 21.124 54.288 18.9C54.288 16.676 55.792 15.14 57.968 15.14C60.16 15.14 61.648 16.676 61.648 18.9ZM59.184 18.9C59.184 17.908 58.752 17.204 57.968 17.204C57.2 17.204 56.768 17.908 56.768 18.9C56.768 19.892 57.2 20.58 57.968 20.58C58.752 20.58 59.184 19.892 59.184 18.9ZM68.182 15.3L69.254 19.204L70.406 15.3H72.806L70.486 22.5H68.358L67.334 18.852L66.31 22.5H64.182L61.862 15.3H64.358L65.494 19.204L66.582 15.3H68.182ZM81.165 19.444H79.405V22.5H76.861V12.676H81.165C83.293 12.676 84.733 13.876 84.733 16.068C84.733 18.244 83.293 19.444 81.165 19.444ZM82.237 16.068C82.237 15.316 81.821 14.836 80.893 14.836H79.405V17.3H80.893C81.821 17.3 82.237 16.804 82.237 16.068ZM90.5978 15.268V17.684C90.2938 17.524 89.9578 17.46 89.5578 17.46C88.8698 17.46 88.4058 17.764 88.2778 18.276V22.5H85.7658V15.3H88.2778V15.94C88.6298 15.46 89.1898 15.14 89.9098 15.14C90.2298 15.14 90.4858 15.204 90.5978 15.268ZM94.1215 15.3V22.5H91.6095V15.3H94.1215ZM94.2975 13.348C94.2975 14.164 93.6415 14.692 92.8735 14.692C92.1055 14.692 91.4495 14.164 91.4495 13.348C91.4495 12.516 92.1055 11.988 92.8735 11.988C93.6415 11.988 94.2975 12.516 94.2975 13.348ZM95.1005 18.9C95.1005 16.676 96.5725 15.14 98.7325 15.14C100.669 15.14 101.869 16.292 102.077 17.972H99.6445C99.5805 17.54 99.2445 17.22 98.7325 17.22C98.0285 17.22 97.5805 17.876 97.5805 18.9C97.5805 19.924 98.0285 20.564 98.7325 20.564C99.2445 20.564 99.5805 20.26 99.6445 19.828H102.077C101.869 21.492 100.669 22.66 98.7325 22.66C96.5725 22.66 95.1005 21.124 95.1005 18.9ZM107.399 19.988H109.719C109.463 21.652 108.215 22.66 106.343 22.66C104.135 22.66 102.679 21.14 102.679 18.9C102.679 16.676 104.215 15.14 106.295 15.14C108.503 15.14 109.751 16.612 109.751 18.756V19.38H105.095C105.175 20.244 105.623 20.708 106.343 20.708C106.855 20.708 107.255 20.484 107.399 19.988ZM106.295 17.092C105.703 17.092 105.303 17.46 105.143 18.132H107.319C107.287 17.54 106.919 17.092 106.295 17.092Z" fill="white"/>
<path d="M18.28 22.6H19.68V21.6C20.3467 21.48 20.92 21.22 21.4 20.82C21.88 20.42 22.12 19.8267 22.12 19.04C22.12 18.48 21.96 17.9667 21.64 17.5C21.32 17.0333 20.68 16.6267 19.72 16.28C18.92 16.0133 18.3667 15.78 18.06 15.58C17.7533 15.38 17.6 15.1067 17.6 14.76C17.6 14.4133 17.7233 14.14 17.97 13.94C18.2167 13.74 18.5733 13.64 19.04 13.64C19.4667 13.64 19.8 13.7433 20.04 13.95C20.28 14.1567 20.4533 14.4133 20.56 14.72L21.84 14.2C21.6933 13.7333 21.4233 13.3267 21.03 12.98C20.6367 12.6333 20.2 12.44 19.72 12.4V11.4H18.32V12.4C17.6533 12.5467 17.1333 12.84 16.76 13.28C16.3867 13.72 16.2 14.2133 16.2 14.76C16.2 15.3867 16.3833 15.8933 16.75 16.28C17.1167 16.6667 17.6933 17 18.48 17.28C19.32 17.5867 19.9033 17.86 20.23 18.1C20.5567 18.34 20.72 18.6533 20.72 19.04C20.72 19.48 20.5633 19.8033 20.25 20.01C19.9367 20.2167 19.56 20.32 19.12 20.32C18.68 20.32 18.29 20.1833 17.95 19.91C17.61 19.6367 17.36 19.2267 17.2 18.68L15.88 19.2C16.0667 19.84 16.3567 20.3567 16.75 20.75C17.1433 21.1433 17.6533 21.4133 18.28 21.56V22.6ZM19 25C17.8933 25 16.8533 24.79 15.88 24.37C14.9067 23.95 14.06 23.38 13.34 22.66C12.62 21.94 12.05 21.0933 11.63 20.12C11.21 19.1467 11 18.1067 11 17C11 15.8933 11.21 14.8533 11.63 13.88C12.05 12.9067 12.62 12.06 13.34 11.34C14.06 10.62 14.9067 10.05 15.88 9.63C16.8533 9.21 17.8933 9 19 9C20.1067 9 21.1467 9.21 22.12 9.63C23.0933 10.05 23.94 10.62 24.66 11.34C25.38 12.06 25.95 12.9067 26.37 13.88C26.79 14.8533 27 15.8933 27 17C27 18.1067 26.79 19.1467 26.37 20.12C25.95 21.0933 25.38 21.94 24.66 22.66C23.94 23.38 23.0933 23.95 22.12 24.37C21.1467 24.79 20.1067 25 19 25ZM19 23.4C20.7867 23.4 22.3 22.78 23.54 21.54C24.78 20.3 25.4 18.7867 25.4 17C25.4 15.2133 24.78 13.7 23.54 12.46C22.3 11.22 20.7867 10.6 19 10.6C17.2133 10.6 15.7 11.22 14.46 12.46C13.22 13.7 12.6 15.2133 12.6 17C12.6 18.7867 13.22 20.3 14.46 21.54C15.7 22.78 17.2133 23.4 19 23.4Z" fill="white"/>
</g>
<defs>
<filter id="filter0_i_59_193" x="0" y="0" width="161" height="36" filterUnits="userSpaceOnUse" color-interpolation-filters="sRGB">
<feFlood flood-opacity="0" result="BackgroundImageFix"/>
<feBlend mode="normal" in="SourceGraphic" in2="BackgroundImageFix" result="shape"/>
<feColorMatrix in="SourceAlpha" type="matrix" values="0 0 0 0 0 0 0 0 0 0 0 0 0 0 0 0 0 0 127 0" result="hardAlpha"/>
<feMorphology radius="3" operator="erode" in="SourceAlpha" result="effect1_innerShadow_59_193"/>
<feOffset dy="3"/>
<feGaussianBlur stdDeviation="2"/>
<feComposite in2="hardAlpha" operator="arithmetic" k2="-1" k3="1"/>
<feColorMatrix type="matrix" values="0 0 0 0 0 0 0 0 0 0 0 0 0 0 0 0 0 0 0.2 0"/>
<feBlend mode="normal" in2="shape" result="effect1_innerShadow_59_193"/>
</filter>
<linearGradient id="paint0_linear_59_193" x1="3" y1="3" x2="121" y2="3" gradientUnits="userSpaceOnUse">
<stop stop-color="#272270"/>
<stop offset="1" stop-color="#3931AF"/>
</linearGradient>
<linearGradient id="paint1_linear_59_193" x1="3" y1="3" x2="121" y2="3" gradientUnits="userSpaceOnUse">
<stop stop-color="#272270"/>
<stop offset="1" stop-color="#3931AF"/>
</linearGradient>
</defs>
</svg>
