<svg width="110" height="24" viewBox="0 0 110 24" fill="none" xmlns="http://www.w3.org/2000/svg">
<path d="M7.968 14.24H5.616V13.152H9.168V13.824C9.168 16.448 7.504 18.144 5.104 18.144C2.544 18.144 0.592 16.16 0.592 13.088C0.592 10.016 2.56 8.032 5.072 8.032C7.168 8.032 8.544 9.232 8.944 11.056H7.68C7.264 9.904 6.464 9.168 5.072 9.168C3.168 9.168 1.856 10.736 1.856 13.088C1.856 15.44 3.152 17.024 5.104 17.024C6.816 17.024 7.824 15.952 7.968 14.24ZM15.4739 15.872H16.6099C16.3539 17.216 15.3459 18.144 13.7459 18.144C11.8099 18.144 10.4819 16.656 10.4819 14.464C10.4819 12.336 11.7779 10.752 13.7139 10.752C15.6659 10.752 16.7059 12.176 16.7059 14.24V14.672H11.6819C11.6979 16.192 12.5459 17.12 13.7459 17.12C14.6259 17.12 15.2819 16.672 15.4739 15.872ZM13.7299 11.776C12.6579 11.776 11.8899 12.512 11.7139 13.76H15.4899C15.4739 12.704 14.9139 11.776 13.7299 11.776ZM18.6424 16.208V11.92H17.4904V10.896H18.6424V9.024H19.8424V10.896H21.5544V11.92H19.8424V16.08C19.8424 16.768 20.1784 17.072 20.7864 17.072C21.1224 17.072 21.4744 16.944 21.7144 16.784V17.904C21.4424 18.048 21.0264 18.144 20.5944 18.144C19.4424 18.144 18.6424 17.52 18.6424 16.208ZM31.6038 18V17.168C31.2518 17.68 30.4838 18.144 29.6038 18.144C27.5238 18.144 26.4038 16.464 26.4038 14.448C26.4038 12.448 27.5238 10.752 29.6038 10.752C30.4838 10.752 31.2518 11.216 31.6038 11.728V7.6H32.8198V18H31.6038ZM31.6038 15.888V13.008C31.2358 12.272 30.5318 11.84 29.7798 11.84C28.4198 11.84 27.6198 12.944 27.6198 14.448C27.6198 15.952 28.4198 17.056 29.7798 17.056C30.5318 17.056 31.2358 16.624 31.6038 15.888ZM36.147 10.896V18H34.947V10.896H36.147ZM36.323 8.752C36.323 9.168 35.971 9.52 35.539 9.52C35.123 9.52 34.771 9.168 34.771 8.752C34.771 8.32 35.123 7.984 35.539 7.984C35.971 7.984 36.323 8.32 36.323 8.752ZM41.9388 10.864V12.096C41.7468 11.968 41.4427 11.904 41.1388 11.904C40.3868 11.904 39.7308 12.4 39.4908 13.232V18H38.2908V10.896H39.4908V11.824C39.7948 11.216 40.4668 10.752 41.2508 10.752C41.5548 10.752 41.8108 10.8 41.9388 10.864ZM47.7083 15.872H48.8443C48.5883 17.216 47.5803 18.144 45.9803 18.144C44.0443 18.144 42.7163 16.656 42.7163 14.464C42.7163 12.336 44.0123 10.752 45.9483 10.752C47.9003 10.752 48.9403 12.176 48.9403 14.24V14.672H43.9163C43.9323 16.192 44.7803 17.12 45.9803 17.12C46.8602 17.12 47.5163 16.672 47.7083 15.872ZM45.9643 11.776C44.8923 11.776 44.1243 12.512 43.9483 13.76H47.7243C47.7083 12.704 47.1483 11.776 45.9643 11.776ZM50.06 14.448C50.06 12.24 51.388 10.752 53.292 10.752C54.892 10.752 55.9 11.68 56.14 13.04H54.908C54.748 12.272 54.14 11.808 53.292 11.808C52.076 11.808 51.276 12.896 51.276 14.448C51.276 16 52.076 17.088 53.292 17.088C54.14 17.088 54.748 16.624 54.908 15.856H56.14C55.9 17.216 54.892 18.144 53.292 18.144C51.388 18.144 50.06 16.656 50.06 14.448ZM58.0955 16.208V11.92H56.9435V10.896H58.0955V9.024H59.2955V10.896H61.0075V11.92H59.2955V16.08C59.2955 16.768 59.6315 17.072 60.2395 17.072C60.5755 17.072 60.9275 16.944 61.1675 16.784V17.904C60.8955 18.048 60.4795 18.144 60.0475 18.144C58.8955 18.144 58.0955 17.52 58.0955 16.208ZM64.0376 10.896V18H62.8376V10.896H64.0376ZM64.2136 8.752C64.2136 9.168 63.8616 9.52 63.4296 9.52C63.0136 9.52 62.6616 9.168 62.6616 8.752C62.6616 8.32 63.0136 7.984 63.4296 7.984C63.8616 7.984 64.2136 8.32 64.2136 8.752ZM72.1974 14.448C72.1974 16.624 70.8694 18.144 68.9334 18.144C66.9814 18.144 65.6694 16.624 65.6694 14.448C65.6694 12.272 66.9814 10.752 68.9334 10.752C70.8694 10.752 72.1974 12.272 72.1974 14.448ZM70.9814 14.448C70.9814 12.896 70.2134 11.808 68.9334 11.808C67.6534 11.808 66.8854 12.896 66.8854 14.448C66.8854 16 67.6534 17.088 68.9334 17.088C70.2134 17.088 70.9814 16 70.9814 14.448ZM73.822 18V10.896H75.022V11.792C75.438 11.232 76.206 10.752 77.118 10.752C78.734 10.752 79.614 11.792 79.614 13.344V18H78.398V13.536C78.398 12.544 77.902 11.856 76.83 11.856C75.998 11.856 75.278 12.416 75.022 13.184V18H73.822ZM81.0581 16.048H82.3061C82.5301 16.784 83.1541 17.136 83.9861 17.136C84.8341 17.136 85.4421 16.8 85.4421 16.08C85.4421 15.584 85.1221 15.28 84.3861 15.088L82.9781 14.72C81.9701 14.464 81.2661 13.952 81.2661 12.848C81.2661 11.584 82.3701 10.752 83.8101 10.752C85.3781 10.752 86.3061 11.52 86.5621 12.768H85.3621C85.1541 12.128 84.6581 11.76 83.7941 11.76C83.0901 11.76 82.4341 12.096 82.4341 12.784C82.4341 13.264 82.7541 13.488 83.4261 13.68L84.8021 14.016C86.0181 14.336 86.6101 15.008 86.6101 16C86.6101 17.344 85.4901 18.144 83.9701 18.144C82.4181 18.144 81.2821 17.36 81.0581 16.048Z" fill="#787878"/>
<path d="M95.7778 20C95.2889 20 94.8704 19.8259 94.5222 19.4778C94.1741 19.1296 94 18.7111 94 18.2222V5.77778C94 5.28889 94.1741 4.87037 94.5222 4.52222C94.8704 4.17407 95.2889 4 95.7778 4H102V5.77778H95.7778V18.2222H108.222V12H110V18.2222C110 18.7111 109.826 19.1296 109.478 19.4778C109.13 19.8259 108.711 20 108.222 20H95.7778ZM99.9556 15.2889L98.7111 14.0444L106.978 5.77778H103.778V4H110V10.2222H108.222V7.02222L99.9556 15.2889Z" fill="#787878"/>
</svg>
