<svg width="173" height="36" viewBox="0 0 173 36" fill="none" xmlns="http://www.w3.org/2000/svg">
<rect width="173" height="36" rx="18" fill="url(#paint0_linear_75_7112)"/>
<path d="M20.84 20.84H18.94V18.44H24.02V19.66C24.02 23.06 21.78 25.2 18.52 25.2C14.96 25.2 12.44 22.6 12.44 18.86C12.44 15.12 14.96 12.52 18.48 12.52C21.64 12.52 23.46 14.34 23.92 16.84H20.64C20.3 15.9 19.64 15.34 18.48 15.34C16.7 15.34 15.68 16.82 15.68 18.86C15.68 20.96 16.76 22.38 18.52 22.38C19.74 22.38 20.54 21.78 20.84 20.84ZM30.8967 21.86H33.7967C33.4767 23.94 31.9167 25.2 29.5767 25.2C26.8167 25.2 24.9967 23.3 24.9967 20.5C24.9967 17.72 26.9167 15.8 29.5167 15.8C32.2767 15.8 33.8367 17.64 33.8367 20.32V21.1H28.0167C28.1167 22.18 28.6767 22.76 29.5767 22.76C30.2167 22.76 30.7167 22.48 30.8967 21.86ZM29.5167 18.24C28.7767 18.24 28.2767 18.7 28.0767 19.54H30.7967C30.7567 18.8 30.2967 18.24 29.5167 18.24ZM35.6875 21.9V18.44H34.3675V16H35.6875V13.52H38.7875V16H40.6675V18.44H38.7875V21.44C38.7875 22.14 39.1275 22.44 39.7475 22.44C40.0875 22.44 40.4675 22.36 40.7475 22.24V24.9C40.3875 25.06 39.7075 25.18 39.0075 25.18C36.8875 25.18 35.6875 24.18 35.6875 21.9ZM51.9594 25V24.28C51.5394 24.76 50.6594 25.2 49.7394 25.2C47.1394 25.2 45.7194 23.1 45.7194 20.5C45.7194 17.9 47.1394 15.8 49.7394 15.8C50.6594 15.8 51.5394 16.24 51.9594 16.72V12H55.0994V25H51.9594ZM51.9594 21.68V19.3C51.7194 18.82 51.1794 18.46 50.5794 18.46C49.4994 18.46 48.8594 19.34 48.8594 20.5C48.8594 21.66 49.4994 22.52 50.5794 22.52C51.1994 22.52 51.7194 22.18 51.9594 21.68ZM59.9253 16V25H56.7853V16H59.9253ZM60.1453 13.56C60.1453 14.58 59.3253 15.24 58.3653 15.24C57.4053 15.24 56.5853 14.58 56.5853 13.56C56.5853 12.52 57.4053 11.86 58.3653 11.86C59.3253 11.86 60.1453 12.52 60.1453 13.56ZM67.6691 15.96V18.98C67.2891 18.78 66.8691 18.7 66.3691 18.7C65.5091 18.7 64.9291 19.08 64.7691 19.72V25H61.6291V16H64.7691V16.8C65.2091 16.2 65.9091 15.8 66.8091 15.8C67.2091 15.8 67.5291 15.88 67.6691 15.96ZM74.2366 21.86H77.1366C76.8166 23.94 75.2566 25.2 72.9166 25.2C70.1566 25.2 68.3366 23.3 68.3366 20.5C68.3366 17.72 70.2566 15.8 72.8566 15.8C75.6166 15.8 77.1766 17.64 77.1766 20.32V21.1H71.3566C71.4566 22.18 72.0166 22.76 72.9166 22.76C73.5566 22.76 74.0566 22.48 74.2366 21.86ZM72.8566 18.24C72.1166 18.24 71.6166 18.7 71.4166 19.54H74.1366C74.0966 18.8 73.6366 18.24 72.8566 18.24ZM78.0045 20.5C78.0045 17.72 79.8445 15.8 82.5445 15.8C84.9645 15.8 86.4645 17.24 86.7245 19.34H83.6845C83.6045 18.8 83.1845 18.4 82.5445 18.4C81.6645 18.4 81.1045 19.22 81.1045 20.5C81.1045 21.78 81.6645 22.58 82.5445 22.58C83.1845 22.58 83.6045 22.2 83.6845 21.66H86.7245C86.4645 23.74 84.9645 25.2 82.5445 25.2C79.8445 25.2 78.0045 23.28 78.0045 20.5ZM88.5977 21.9V18.44H87.2777V16H88.5977V13.52H91.6977V16H93.5777V18.44H91.6977V21.44C91.6977 22.14 92.0377 22.44 92.6577 22.44C92.9977 22.44 93.3777 22.36 93.6577 22.24V24.9C93.2977 25.06 92.6177 25.18 91.9177 25.18C89.7977 25.18 88.5977 24.18 88.5977 21.9ZM98.2456 16V25H95.1056V16H98.2456ZM98.4656 13.56C98.4656 14.58 97.6456 15.24 96.6856 15.24C95.7256 15.24 94.9056 14.58 94.9056 13.56C94.9056 12.52 95.7256 11.86 96.6856 11.86C97.6456 11.86 98.4656 12.52 98.4656 13.56ZM108.669 20.5C108.669 23.28 106.809 25.2 104.069 25.2C101.349 25.2 99.4694 23.28 99.4694 20.5C99.4694 17.72 101.349 15.8 104.069 15.8C106.809 15.8 108.669 17.72 108.669 20.5ZM105.589 20.5C105.589 19.26 105.049 18.38 104.069 18.38C103.109 18.38 102.569 19.26 102.569 20.5C102.569 21.74 103.109 22.6 104.069 22.6C105.049 22.6 105.589 21.74 105.589 20.5ZM109.891 25V16H113.031V16.78C113.531 16.22 114.411 15.8 115.451 15.8C117.451 15.8 118.631 17.1 118.631 19.1V25H115.511V19.86C115.511 19.12 115.131 18.58 114.331 18.58C113.711 18.58 113.191 18.94 113.031 19.56V25H109.891ZM119.742 22.22H122.802C122.942 22.72 123.382 23 123.942 23C124.462 23 124.862 22.8 124.862 22.38C124.862 22.04 124.602 21.92 124.162 21.82L122.402 21.46C120.902 21.14 119.922 20.42 119.922 18.84C119.922 16.92 121.642 15.8 123.762 15.8C126.222 15.8 127.562 16.94 127.842 18.72H124.942C124.842 18.34 124.562 18 123.842 18C123.382 18 123.002 18.2 123.002 18.6C123.002 18.88 123.202 19.02 123.622 19.1L125.402 19.52C127.042 19.9 127.922 20.76 127.922 22.22C127.922 24.14 126.182 25.2 123.982 25.2C121.682 25.2 120.022 24.16 119.742 22.22Z" fill="white"/>
<path d="M146.778 26C146.289 26 145.87 25.8259 145.522 25.4778C145.174 25.1296 145 24.7111 145 24.2222V11.7778C145 11.2889 145.174 10.8704 145.522 10.5222C145.87 10.1741 146.289 10 146.778 10H153V11.7778H146.778V24.2222H159.222V18H161V24.2222C161 24.7111 160.826 25.1296 160.478 25.4778C160.13 25.8259 159.711 26 159.222 26H146.778ZM150.956 21.2889L149.711 20.0444L157.978 11.7778H154.778V10H161V16.2222H159.222V13.0222L150.956 21.2889Z" fill="white"/>
<defs>
<linearGradient id="paint0_linear_75_7112" x1="0" y1="0" x2="173" y2="0" gradientUnits="userSpaceOnUse">
<stop stop-color="#272270"/>
<stop offset="1" stop-color="#3931AF"/>
</linearGradient>
</defs>
</svg>
