<svg width="140" height="52" viewBox="0 0 140 52" fill="none" xmlns="http://www.w3.org/2000/svg">
<path d="M22.1 33H18.92V20.72H27.56V23.5H22.1V25.94H27.12V28.66H22.1V33ZM37.4233 28.5C37.4233 31.28 35.5633 33.2 32.8233 33.2C30.1033 33.2 28.2233 31.28 28.2233 28.5C28.2233 25.72 30.1033 23.8 32.8233 23.8C35.5633 23.8 37.4233 25.72 37.4233 28.5ZM34.3433 28.5C34.3433 27.26 33.8033 26.38 32.8233 26.38C31.8633 26.38 31.3233 27.26 31.3233 28.5C31.3233 29.74 31.8633 30.6 32.8233 30.6C33.8033 30.6 34.3433 29.74 34.3433 28.5ZM44.6847 23.96V26.98C44.3047 26.78 43.8847 26.7 43.3847 26.7C42.5247 26.7 41.9447 27.08 41.7847 27.72V33H38.6447V24H41.7847V24.8C42.2247 24.2 42.9247 23.8 43.8247 23.8C44.2247 23.8 44.5447 23.88 44.6847 23.96ZM53.0933 32.28V33H49.9533V20H53.0933V24.72C53.5133 24.24 54.3933 23.8 55.3133 23.8C57.9133 23.8 59.3333 25.9 59.3333 28.5C59.3333 31.1 57.9133 33.2 55.3133 33.2C54.3933 33.2 53.5133 32.76 53.0933 32.28ZM53.0933 27.3V29.68C53.3333 30.18 53.8533 30.52 54.4733 30.52C55.5533 30.52 56.1933 29.66 56.1933 28.5C56.1933 27.34 55.5533 26.46 54.4733 26.46C53.8733 26.46 53.3333 26.82 53.0933 27.3ZM69.1992 24V33H66.0592V32.22C65.5792 32.78 64.6792 33.2 63.6592 33.2C61.6792 33.2 60.4992 31.9 60.4992 29.9V24H63.6192V29.16C63.6192 29.92 63.9792 30.46 64.7792 30.46C65.3592 30.46 65.8992 30.08 66.0592 29.46V24H69.1992ZM70.3513 30.22H73.4113C73.5513 30.72 73.9913 31 74.5513 31C75.0713 31 75.4713 30.8 75.4713 30.38C75.4713 30.04 75.2113 29.92 74.7713 29.82L73.0113 29.46C71.5113 29.14 70.5313 28.42 70.5313 26.84C70.5313 24.92 72.2513 23.8 74.3713 23.8C76.8313 23.8 78.1713 24.94 78.4513 26.72H75.5513C75.4513 26.34 75.1712 26 74.4513 26C73.9913 26 73.6113 26.2 73.6113 26.6C73.6113 26.88 73.8113 27.02 74.2313 27.1L76.0113 27.52C77.6513 27.9 78.5313 28.76 78.5313 30.22C78.5313 32.14 76.7913 33.2 74.5913 33.2C72.2913 33.2 70.6313 32.16 70.3513 30.22ZM82.9761 24V33H79.8361V24H82.9761ZM83.1961 21.56C83.1961 22.58 82.3761 23.24 81.4161 23.24C80.4561 23.24 79.6361 22.58 79.6361 21.56C79.6361 20.52 80.4561 19.86 81.4161 19.86C82.3761 19.86 83.1961 20.52 83.1961 21.56ZM84.6798 33V24H87.8198V24.78C88.3198 24.22 89.1998 23.8 90.2398 23.8C92.2398 23.8 93.4198 25.1 93.4198 27.1V33H90.2998V27.86C90.2998 27.12 89.9198 26.58 89.1198 26.58C88.4998 26.58 87.9798 26.94 87.8198 27.56V33H84.6798ZM100.471 29.86H103.371C103.051 31.94 101.491 33.2 99.1509 33.2C96.3909 33.2 94.5709 31.3 94.5709 28.5C94.5709 25.72 96.4909 23.8 99.0909 23.8C101.851 23.8 103.411 25.64 103.411 28.32V29.1H97.5909C97.6909 30.18 98.2509 30.76 99.1509 30.76C99.7909 30.76 100.291 30.48 100.471 29.86ZM99.0909 26.24C98.3509 26.24 97.8509 26.7 97.6509 27.54H100.371C100.331 26.8 99.8709 26.24 99.0909 26.24ZM104.14 30.22H107.2C107.34 30.72 107.78 31 108.34 31C108.86 31 109.26 30.8 109.26 30.38C109.26 30.04 109 29.92 108.56 29.82L106.8 29.46C105.3 29.14 104.32 28.42 104.32 26.84C104.32 24.92 106.04 23.8 108.16 23.8C110.62 23.8 111.96 24.94 112.24 26.72H109.34C109.24 26.34 108.96 26 108.24 26C107.78 26 107.4 26.2 107.4 26.6C107.4 26.88 107.6 27.02 108.02 27.1L109.8 27.52C111.44 27.9 112.32 28.76 112.32 30.22C112.32 32.14 110.58 33.2 108.38 33.2C106.08 33.2 104.42 32.16 104.14 30.22ZM113.105 30.22H116.165C116.305 30.72 116.745 31 117.305 31C117.825 31 118.225 30.8 118.225 30.38C118.225 30.04 117.965 29.92 117.525 29.82L115.765 29.46C114.265 29.14 113.285 28.42 113.285 26.84C113.285 24.92 115.005 23.8 117.125 23.8C119.585 23.8 120.925 24.94 121.205 26.72H118.305C118.205 26.34 117.925 26 117.205 26C116.745 26 116.365 26.2 116.365 26.6C116.365 26.88 116.565 27.02 116.985 27.1L118.765 27.52C120.405 27.9 121.285 28.76 121.285 30.22C121.285 32.14 119.545 33.2 117.345 33.2C115.045 33.2 113.385 32.16 113.105 30.22Z" fill="#353535"/>
</svg>
