<svg width="120" height="50" viewBox="0 0 120 50" fill="none" xmlns="http://www.w3.org/2000/svg">
<rect y="0.5" width="120" height="49" rx="24.5" fill="url(#paint0_linear_44_314)"/>
<path d="M20.92 32V19.72H24.14V29.22H29.64V32H20.92ZM39.7163 27.5C39.7163 30.28 37.8563 32.2 35.1163 32.2C32.3963 32.2 30.5163 30.28 30.5163 27.5C30.5163 24.72 32.3963 22.8 35.1163 22.8C37.8563 22.8 39.7163 24.72 39.7163 27.5ZM36.6363 27.5C36.6363 26.26 36.0963 25.38 35.1163 25.38C34.1563 25.38 33.6163 26.26 33.6163 27.5C33.6163 28.74 34.1563 29.6 35.1163 29.6C36.0963 29.6 36.6363 28.74 36.6363 27.5ZM46.6948 31.38V30.74C46.2948 31.2 45.5548 31.62 44.5548 31.62C42.0348 31.62 40.5748 29.68 40.5748 27.2C40.5748 24.74 42.0348 22.8 44.5548 22.8C45.5548 22.8 46.2948 23.2 46.6948 23.68V23H49.7948V30.7C49.7948 33.86 47.8548 35.38 45.1148 35.38C42.7148 35.38 40.9948 34.2 40.6748 32.12H43.6948C43.8748 32.76 44.3548 33.08 45.1148 33.08C46.0948 33.08 46.6948 32.56 46.6948 31.38ZM46.6948 28.36V26.04C46.4548 25.64 45.9548 25.28 45.3348 25.28C44.2948 25.28 43.6748 26.08 43.6748 27.2C43.6748 28.34 44.2948 29.12 45.3348 29.12C45.9548 29.12 46.4548 28.78 46.6948 28.36ZM54.6245 23V32H51.4845V23H54.6245ZM54.8445 20.56C54.8445 21.58 54.0245 22.24 53.0645 22.24C52.1045 22.24 51.2845 21.58 51.2845 20.56C51.2845 19.52 52.1045 18.86 53.0645 18.86C54.0245 18.86 54.8445 19.52 54.8445 20.56ZM56.3283 32V23H59.4683V23.78C59.9683 23.22 60.8483 22.8 61.8883 22.8C63.8883 22.8 65.0683 24.1 65.0683 26.1V32H61.9483V26.86C61.9483 26.12 61.5683 25.58 60.7683 25.58C60.1483 25.58 59.6283 25.94 59.4683 26.56V32H56.3283Z" fill="white"/>
<rect x="78" y="7.5" width="35" height="35" rx="17.5" fill="white"/>
<path d="M95.5 28.0077L90.1923 22.6999L90.9 21.9922L95.5 26.5922L100.1 21.9922L100.808 22.6999L95.5 28.0077Z" fill="#1C1B1F"/>
<defs>
<linearGradient id="paint0_linear_44_314" x1="0" y1="0.5" x2="120" y2="0.5" gradientUnits="userSpaceOnUse">
<stop stop-color="#ED560E"/>
<stop offset="0.451923" stop-color="#F57708"/>
<stop offset="1" stop-color="#FFA000"/>
</linearGradient>
</defs>
</svg>
