<svg width="140" height="52" viewBox="0 0 140 52" fill="none" xmlns="http://www.w3.org/2000/svg">
<rect x="0.5" width="139" height="52" rx="6" fill="url(#paint0_linear_44_280)"/>
<path d="M22.6 33H19.42V20.72H28.06V23.5H22.6V25.94H27.62V28.66H22.6V33ZM37.9233 28.5C37.9233 31.28 36.0633 33.2 33.3233 33.2C30.6033 33.2 28.7233 31.28 28.7233 28.5C28.7233 25.72 30.6033 23.8 33.3233 23.8C36.0633 23.8 37.9233 25.72 37.9233 28.5ZM34.8433 28.5C34.8433 27.26 34.3033 26.38 33.3233 26.38C32.3633 26.38 31.8233 27.26 31.8233 28.5C31.8233 29.74 32.3633 30.6 33.3233 30.6C34.3033 30.6 34.8433 29.74 34.8433 28.5ZM45.1847 23.96V26.98C44.8047 26.78 44.3847 26.7 43.8847 26.7C43.0247 26.7 42.4447 27.08 42.2847 27.72V33H39.1447V24H42.2847V24.8C42.7247 24.2 43.4247 23.8 44.3247 23.8C44.7247 23.8 45.0447 23.88 45.1847 23.96ZM53.5933 32.28V36.18H50.4533V24H53.5933V24.72C54.0133 24.24 54.8933 23.8 55.8133 23.8C58.4133 23.8 59.8333 25.92 59.8333 28.5C59.8333 31.06 58.4133 33.2 55.8133 33.2C54.8933 33.2 54.0133 32.76 53.5933 32.28ZM53.5933 27.3V29.68C53.8333 30.18 54.3733 30.52 54.9733 30.52C56.0533 30.52 56.6933 29.66 56.6933 28.5C56.6933 27.34 56.0533 26.46 54.9733 26.46C54.3533 26.46 53.8333 26.82 53.5933 27.3ZM66.5764 29.86H69.4764C69.1564 31.94 67.5964 33.2 65.2564 33.2C62.4964 33.2 60.6764 31.3 60.6764 28.5C60.6764 25.72 62.5964 23.8 65.1964 23.8C67.9564 23.8 69.5164 25.64 69.5164 28.32V29.1H63.6964C63.7964 30.18 64.3564 30.76 65.2564 30.76C65.8964 30.76 66.3964 30.48 66.5764 29.86ZM65.1964 26.24C64.4564 26.24 63.9564 26.7 63.7564 27.54H66.4764C66.4364 26.8 65.9764 26.24 65.1964 26.24ZM76.7472 23.96V26.98C76.3672 26.78 75.9472 26.7 75.4472 26.7C74.5872 26.7 74.0072 27.08 73.8472 27.72V33H70.7072V24H73.8472V24.8C74.2872 24.2 74.9872 23.8 75.8872 23.8C76.2872 23.8 76.6072 23.88 76.7472 23.96ZM77.4528 30.22H80.5128C80.6528 30.72 81.0928 31 81.6528 31C82.1728 31 82.5728 30.8 82.5728 30.38C82.5728 30.04 82.3128 29.92 81.8728 29.82L80.1128 29.46C78.6128 29.14 77.6328 28.42 77.6328 26.84C77.6328 24.92 79.3528 23.8 81.4728 23.8C83.9328 23.8 85.2728 24.94 85.5528 26.72H82.6528C82.5528 26.34 82.2728 26 81.5528 26C81.0928 26 80.7128 26.2 80.7128 26.6C80.7128 26.88 80.9128 27.02 81.3328 27.1L83.1128 27.52C84.7528 27.9 85.6328 28.76 85.6328 30.22C85.6328 32.14 83.8928 33.2 81.6928 33.2C79.3928 33.2 77.7328 32.16 77.4528 30.22ZM95.6577 28.5C95.6577 31.28 93.7977 33.2 91.0577 33.2C88.3377 33.2 86.4577 31.28 86.4577 28.5C86.4577 25.72 88.3377 23.8 91.0577 23.8C93.7977 23.8 95.6577 25.72 95.6577 28.5ZM92.5777 28.5C92.5777 27.26 92.0377 26.38 91.0577 26.38C90.0977 26.38 89.5577 27.26 89.5577 28.5C89.5577 29.74 90.0977 30.6 91.0577 30.6C92.0377 30.6 92.5777 29.74 92.5777 28.5ZM96.8791 33V24H100.019V24.78C100.519 24.22 101.399 23.8 102.439 23.8C104.439 23.8 105.619 25.1 105.619 27.1V33H102.499V27.86C102.499 27.12 102.119 26.58 101.319 26.58C100.699 26.58 100.179 26.94 100.019 27.56V33H96.8791ZM115.27 33H112.25V32.54C111.95 32.84 111.05 33.16 110.09 33.16C108.31 33.16 106.81 32.16 106.81 30.26C106.81 28.52 108.31 27.4 110.27 27.4C111.01 27.4 111.89 27.64 112.25 27.9V27.32C112.25 26.74 111.91 26.24 111.15 26.24C110.57 26.24 110.23 26.5 110.09 26.9H107.13C107.39 25.16 108.93 23.78 111.25 23.78C113.81 23.78 115.27 25.14 115.27 27.48V33ZM112.25 30.48V29.96C112.05 29.58 111.51 29.34 110.93 29.34C110.31 29.34 109.69 29.6 109.69 30.2C109.69 30.82 110.31 31.08 110.93 31.08C111.51 31.08 112.05 30.84 112.25 30.48ZM119.941 20V33H116.801V20H119.941Z" fill="white"/>
<defs>
<linearGradient id="paint0_linear_44_280" x1="0.5" y1="0" x2="139.5" y2="0" gradientUnits="userSpaceOnUse">
<stop stop-color="#ED560E"/>
<stop offset="0.451923" stop-color="#F57708"/>
<stop offset="1" stop-color="#FFA000"/>
</linearGradient>
</defs>
</svg>
