<svg width="163" height="49" viewBox="0 0 163 49" fill="none" xmlns="http://www.w3.org/2000/svg">
<rect width="163" height="49" rx="24.5" fill="url(#paint0_linear_44_413)"/>
<path d="M20.44 25.36C20.44 21.64 22.9 19.02 26.34 19.02C29.4 19.02 31.2 20.84 31.64 23.34H28.44C28.12 22.44 27.46 21.84 26.34 21.84C24.64 21.84 23.68 23.34 23.68 25.36C23.68 27.36 24.64 28.88 26.34 28.88C27.46 28.88 28.12 28.28 28.44 27.36H31.64C31.2 29.88 29.4 31.7 26.34 31.7C22.9 31.7 20.44 29.08 20.44 25.36ZM41.6303 27C41.6303 29.78 39.7703 31.7 37.0303 31.7C34.3103 31.7 32.4303 29.78 32.4303 27C32.4303 24.22 34.3103 22.3 37.0303 22.3C39.7703 22.3 41.6303 24.22 41.6303 27ZM38.5503 27C38.5503 25.76 38.0103 24.88 37.0303 24.88C36.0703 24.88 35.5303 25.76 35.5303 27C35.5303 28.24 36.0703 29.1 37.0303 29.1C38.0103 29.1 38.5503 28.24 38.5503 27ZM42.8517 31.5V22.5H45.9917V23.28C46.4917 22.72 47.3717 22.3 48.4117 22.3C50.4117 22.3 51.5917 23.6 51.5917 25.6V31.5H48.4717V26.36C48.4717 25.62 48.0917 25.08 47.2917 25.08C46.6717 25.08 46.1517 25.44 45.9917 26.06V31.5H42.8517ZM53.8828 28.4V24.94H52.5628V22.5H53.8828V20.02H56.9828V22.5H58.8628V24.94H56.9828V27.94C56.9828 28.64 57.3228 28.94 57.9428 28.94C58.2828 28.94 58.6628 28.86 58.9428 28.74V31.4C58.5828 31.56 57.9028 31.68 57.2028 31.68C55.0828 31.68 53.8828 30.68 53.8828 28.4ZM68.3327 31.5H65.3127V31.04C65.0127 31.34 64.1127 31.66 63.1527 31.66C61.3727 31.66 59.8727 30.66 59.8727 28.76C59.8727 27.02 61.3727 25.9 63.3327 25.9C64.0727 25.9 64.9527 26.14 65.3127 26.4V25.82C65.3127 25.24 64.9727 24.74 64.2127 24.74C63.6327 24.74 63.2927 25 63.1527 25.4H60.1927C60.4527 23.66 61.9927 22.28 64.3127 22.28C66.8727 22.28 68.3327 23.64 68.3327 25.98V31.5ZM65.3127 28.98V28.46C65.1127 28.08 64.5727 27.84 63.9927 27.84C63.3727 27.84 62.7527 28.1 62.7527 28.7C62.7527 29.32 63.3727 29.58 63.9927 29.58C64.5727 29.58 65.1127 29.34 65.3127 28.98ZM69.3834 27C69.3834 24.22 71.2234 22.3 73.9234 22.3C76.3434 22.3 77.8434 23.74 78.1034 25.84H75.0634C74.9834 25.3 74.5634 24.9 73.9234 24.9C73.0434 24.9 72.4834 25.72 72.4834 27C72.4834 28.28 73.0434 29.08 73.9234 29.08C74.5634 29.08 74.9834 28.7 75.0634 28.16H78.1034C77.8434 30.24 76.3434 31.7 73.9234 31.7C71.2234 31.7 69.3834 29.78 69.3834 27ZM79.9766 28.4V24.94H78.6566V22.5H79.9766V20.02H83.0766V22.5H84.9566V24.94H83.0766V27.94C83.0766 28.64 83.4166 28.94 84.0366 28.94C84.3766 28.94 84.7566 28.86 85.0366 28.74V31.4C84.6766 31.56 83.9966 31.68 83.2966 31.68C81.1766 31.68 79.9766 30.68 79.9766 28.4ZM99.1484 22.5V31.5H96.0084V30.72C95.5284 31.28 94.6284 31.7 93.6084 31.7C91.6284 31.7 90.4484 30.4 90.4484 28.4V22.5H93.5684V27.66C93.5684 28.42 93.9284 28.96 94.7284 28.96C95.3084 28.96 95.8484 28.58 96.0084 27.96V22.5H99.1484ZM100.3 28.72H103.36C103.5 29.22 103.94 29.5 104.5 29.5C105.02 29.5 105.42 29.3 105.42 28.88C105.42 28.54 105.16 28.42 104.72 28.32L102.96 27.96C101.46 27.64 100.48 26.92 100.48 25.34C100.48 23.42 102.2 22.3 104.32 22.3C106.78 22.3 108.12 23.44 108.4 25.22H105.5C105.4 24.84 105.12 24.5 104.4 24.5C103.94 24.5 103.56 24.7 103.56 25.1C103.56 25.38 103.76 25.52 104.18 25.6L105.96 26.02C107.6 26.4 108.48 27.26 108.48 28.72C108.48 30.64 106.74 31.7 104.54 31.7C102.24 31.7 100.58 30.66 100.3 28.72Z" fill="white"/>
<rect x="121" y="7" width="35" height="35" rx="17.5" fill="white"/>
<mask id="mask0_44_413" style="mask-type:alpha" maskUnits="userSpaceOnUse" x="133" y="19" width="11" height="11">
<rect x="133.192" y="19.1921" width="10.6155" height="10.6155" fill="#D9D9D9"/>
</mask>
<g mask="url(#mask0_44_413)">
<path d="M138.5 24.4998C138.743 24.4998 138.952 24.4132 139.125 24.2399C139.298 24.0667 139.385 23.8584 139.385 23.6152C139.385 23.3719 139.298 23.1636 139.125 22.9904C138.952 22.8172 138.743 22.7305 138.5 22.7305C138.257 22.7305 138.049 22.8172 137.875 22.9904C137.702 23.1636 137.615 23.3719 137.615 23.6152C137.615 23.8584 137.702 24.0667 137.875 24.2399C138.049 24.4132 138.257 24.4998 138.5 24.4998ZM138.5 28.9229C137.313 27.913 136.427 26.9749 135.841 26.1087C135.255 25.2425 134.962 24.4408 134.962 23.7036C134.962 22.5978 135.317 21.7169 136.029 21.0608C136.74 20.4047 137.564 20.0767 138.5 20.0767C139.436 20.0767 140.26 20.4047 140.971 21.0608C141.683 21.7169 142.039 22.5978 142.039 23.7036C142.039 24.4408 141.746 25.2425 141.159 26.1087C140.573 26.9749 139.687 27.913 138.5 28.9229Z" fill="#ED560E"/>
</g>
<defs>
<linearGradient id="paint0_linear_44_413" x1="0" y1="0" x2="163" y2="0" gradientUnits="userSpaceOnUse">
<stop stop-color="#ED560E"/>
<stop offset="0.451923" stop-color="#F57708"/>
<stop offset="1" stop-color="#FFA000"/>
</linearGradient>
</defs>
</svg>
