<svg width="103" height="32" viewBox="0 0 103 32" fill="none" xmlns="http://www.w3.org/2000/svg">
<rect width="103" height="32" rx="16" fill="#1C194C"/>
<path d="M12.352 17.088C12.352 14.112 14.32 12.016 17.072 12.016C19.52 12.016 20.96 13.472 21.312 15.472H18.752C18.496 14.752 17.968 14.272 17.072 14.272C15.712 14.272 14.944 15.472 14.944 17.088C14.944 18.688 15.712 19.904 17.072 19.904C17.968 19.904 18.496 19.424 18.752 18.688H21.312C20.96 20.704 19.52 22.16 17.072 22.16C14.32 22.16 12.352 20.064 12.352 17.088ZM28.7286 22H26.3126V21.632C26.0726 21.872 25.3526 22.128 24.5846 22.128C23.1606 22.128 21.9606 21.328 21.9606 19.808C21.9606 18.416 23.1606 17.52 24.7286 17.52C25.3206 17.52 26.0246 17.712 26.3126 17.92V17.456C26.3126 16.992 26.0406 16.592 25.4326 16.592C24.9686 16.592 24.6966 16.8 24.5846 17.12H22.2166C22.4246 15.728 23.6566 14.624 25.5126 14.624C27.5606 14.624 28.7286 15.712 28.7286 17.584V22ZM26.3126 19.984V19.568C26.1526 19.264 25.7206 19.072 25.2566 19.072C24.7606 19.072 24.2646 19.28 24.2646 19.76C24.2646 20.256 24.7606 20.464 25.2566 20.464C25.7206 20.464 26.1526 20.272 26.3126 19.984ZM34.7853 14.768V17.184C34.4813 17.024 34.1453 16.96 33.7453 16.96C33.0573 16.96 32.5933 17.264 32.4653 17.776V22H29.9533V14.8H32.4653V15.44C32.8173 14.96 33.3773 14.64 34.0973 14.64C34.4173 14.64 34.6733 14.704 34.7853 14.768ZM44.7601 14.8L45.8321 18.704L46.9841 14.8H49.3841L47.0641 22H44.9361L43.9121 18.352L42.8881 22H40.7601L38.4401 14.8H40.9361L42.0721 18.704L43.1601 14.8H44.7601ZM56.2443 22H53.8283V21.632C53.5883 21.872 52.8683 22.128 52.1003 22.128C50.6763 22.128 49.4763 21.328 49.4763 19.808C49.4763 18.416 50.6763 17.52 52.2443 17.52C52.8363 17.52 53.5403 17.712 53.8283 17.92V17.456C53.8283 16.992 53.5563 16.592 52.9483 16.592C52.4843 16.592 52.2123 16.8 52.1003 17.12H49.7323C49.9403 15.728 51.1723 14.624 53.0283 14.624C55.0763 14.624 56.2443 15.712 56.2443 17.584V22ZM53.8283 19.984V19.568C53.6683 19.264 53.2363 19.072 52.7723 19.072C52.2763 19.072 51.7803 19.28 51.7803 19.76C51.7803 20.256 52.2763 20.464 52.7723 20.464C53.2363 20.464 53.6683 20.272 53.8283 19.984ZM57.0529 19.776H59.5009C59.6129 20.176 59.9649 20.4 60.4129 20.4C60.8289 20.4 61.1489 20.24 61.1489 19.904C61.1489 19.632 60.9409 19.536 60.5889 19.456L59.1809 19.168C57.9809 18.912 57.1969 18.336 57.1969 17.072C57.1969 15.536 58.5729 14.64 60.2689 14.64C62.2369 14.64 63.3089 15.552 63.5329 16.976H61.2129C61.1329 16.672 60.9089 16.4 60.3329 16.4C59.9649 16.4 59.6609 16.56 59.6609 16.88C59.6609 17.104 59.8209 17.216 60.1569 17.28L61.5809 17.616C62.8929 17.92 63.5969 18.608 63.5969 19.776C63.5969 21.312 62.2049 22.16 60.4449 22.16C58.6049 22.16 57.2769 21.328 57.0529 19.776ZM64.6408 22V11.6H67.1528V15.424C67.5528 14.976 68.2568 14.64 69.0888 14.64C70.6888 14.64 71.6328 15.68 71.6328 17.28V22H69.1368V17.888C69.1368 17.296 68.8328 16.864 68.1927 16.864C67.6968 16.864 67.2808 17.152 67.1528 17.648V22H64.6408Z" fill="white"/>
<path d="M83.8 20L83 19.2L86.2 16L83 12.8L83.8 12L87 15.2L90.2 12L91 12.8L87.8 16L91 19.2L90.2 20L87 16.8L83.8 20Z" fill="white"/>
</svg>
