<svg width="120" height="49" viewBox="0 0 120 49" fill="none" xmlns="http://www.w3.org/2000/svg">
<rect width="120" height="49" rx="24.5" fill="url(#paint0_linear_4_503)"/>
<path d="M20.92 31.5V19.22H24.14V28.72H29.64V31.5H20.92ZM39.7163 27C39.7163 29.78 37.8563 31.7 35.1163 31.7C32.3963 31.7 30.5163 29.78 30.5163 27C30.5163 24.22 32.3963 22.3 35.1163 22.3C37.8563 22.3 39.7163 24.22 39.7163 27ZM36.6363 27C36.6363 25.76 36.0963 24.88 35.1163 24.88C34.1563 24.88 33.6163 25.76 33.6163 27C33.6163 28.24 34.1563 29.1 35.1163 29.1C36.0963 29.1 36.6363 28.24 36.6363 27ZM46.6948 30.88V30.24C46.2948 30.7 45.5548 31.12 44.5548 31.12C42.0348 31.12 40.5748 29.18 40.5748 26.7C40.5748 24.24 42.0348 22.3 44.5548 22.3C45.5548 22.3 46.2948 22.7 46.6948 23.18V22.5H49.7948V30.2C49.7948 33.36 47.8548 34.88 45.1148 34.88C42.7148 34.88 40.9948 33.7 40.6748 31.62H43.6948C43.8748 32.26 44.3548 32.58 45.1148 32.58C46.0948 32.58 46.6948 32.06 46.6948 30.88ZM46.6948 27.86V25.54C46.4548 25.14 45.9548 24.78 45.3348 24.78C44.2948 24.78 43.6748 25.58 43.6748 26.7C43.6748 27.84 44.2948 28.62 45.3348 28.62C45.9548 28.62 46.4548 28.28 46.6948 27.86ZM54.6245 22.5V31.5H51.4845V22.5H54.6245ZM54.8445 20.06C54.8445 21.08 54.0245 21.74 53.0645 21.74C52.1045 21.74 51.2845 21.08 51.2845 20.06C51.2845 19.02 52.1045 18.36 53.0645 18.36C54.0245 18.36 54.8445 19.02 54.8445 20.06ZM56.3283 31.5V22.5H59.4683V23.28C59.9683 22.72 60.8483 22.3 61.8883 22.3C63.8883 22.3 65.0683 23.6 65.0683 25.6V31.5H61.9483V26.36C61.9483 25.62 61.5683 25.08 60.7683 25.08C60.1483 25.08 59.6283 25.44 59.4683 26.06V31.5H56.3283Z" fill="white"/>
<rect x="78" y="7" width="35" height="35" rx="17.5" fill="white"/>
<path d="M95.5 27.5077L90.1922 22.2L90.9 21.4922L95.5 26.0922L100.1 21.4922L100.808 22.2L95.5 27.5077Z" fill="#1C1B1F"/>
<defs>
<linearGradient id="paint0_linear_4_503" x1="0" y1="0" x2="120" y2="0" gradientUnits="userSpaceOnUse">
<stop stop-color="#ED560E"/>
<stop offset="0.451923" stop-color="#F57708"/>
<stop offset="1" stop-color="#FFA000"/>
</linearGradient>
</defs>
</svg>
