<svg width="132" height="33" viewBox="0 0 132 33" fill="none" xmlns="http://www.w3.org/2000/svg">
<rect width="131.647" height="33" rx="16.5" fill="url(#paint0_linear_73_7218)"/>
<path d="M20.432 20.276V22.5H12.544V20.596L17.104 14.884H12.592V12.676H20.384V14.564L15.872 20.276H20.432ZM26.3448 15.908C26.3448 15.124 25.8008 14.58 25.0168 14.58C24.2488 14.58 23.6728 15.124 23.6728 15.908C23.6728 16.708 24.2488 17.252 25.0168 17.252C25.8008 17.252 26.3448 16.708 26.3448 15.908ZM21.4648 19.828H23.8808C24.0248 20.26 24.3608 20.564 24.9208 20.564C25.8648 20.564 26.4248 19.524 26.4408 18.5V18.42C26.1528 18.836 25.4808 19.156 24.6328 19.156C22.6328 19.156 21.3848 17.732 21.3848 15.972C21.3848 14.004 22.7768 12.516 25.0328 12.516C26.2968 12.516 27.3848 13.108 28.0408 14.148C28.6168 15.012 28.8568 16.068 28.8568 17.364C28.8568 20.436 27.4168 22.66 24.9368 22.66C22.9848 22.66 21.7848 21.556 21.4648 19.828ZM34.242 12.676V22.5H31.746V15.46L29.458 16.564V14.132L32.514 12.676H34.242ZM43.2401 22.66C40.6481 22.66 38.9521 21.188 38.9521 18.484V12.676H41.5121V18.26C41.5121 19.652 42.1681 20.372 43.2401 20.372C44.2961 20.372 44.9521 19.652 44.9521 18.26V12.676H47.5121V18.5C47.5121 21.188 45.8321 22.66 43.2401 22.66ZM48.8126 22.5V15.3H51.3246V15.924C51.7246 15.476 52.4286 15.14 53.2606 15.14C54.8606 15.14 55.8046 16.18 55.8046 17.78V22.5H53.3086V18.388C53.3086 17.796 53.0046 17.364 52.3646 17.364C51.8686 17.364 51.4526 17.652 51.3246 18.148V22.5H48.8126ZM59.6215 12.1V22.5H57.1095V12.1H59.6215ZM65.3205 19.988H67.6405C67.3845 21.652 66.1365 22.66 64.2645 22.66C62.0565 22.66 60.6005 21.14 60.6005 18.9C60.6005 16.676 62.1365 15.14 64.2165 15.14C66.4245 15.14 67.6725 16.612 67.6725 18.756V19.38H63.0165C63.0965 20.244 63.5445 20.708 64.2645 20.708C64.7765 20.708 65.1765 20.484 65.3205 19.988ZM64.2165 17.092C63.6245 17.092 63.2245 17.46 63.0645 18.132H65.2405C65.2085 17.54 64.8405 17.092 64.2165 17.092ZM75.088 22.5H72.672V22.132C72.432 22.372 71.712 22.628 70.944 22.628C69.52 22.628 68.32 21.828 68.32 20.308C68.32 18.916 69.52 18.02 71.088 18.02C71.68 18.02 72.384 18.212 72.672 18.42V17.956C72.672 17.492 72.4 17.092 71.792 17.092C71.328 17.092 71.056 17.3 70.944 17.62H68.576C68.784 16.228 70.016 15.124 71.872 15.124C73.92 15.124 75.088 16.212 75.088 18.084V22.5ZM72.672 20.484V20.068C72.512 19.764 72.08 19.572 71.616 19.572C71.12 19.572 70.624 19.78 70.624 20.26C70.624 20.756 71.12 20.964 71.616 20.964C72.08 20.964 72.512 20.772 72.672 20.484ZM80.9206 22.5V21.924C80.5846 22.308 79.8806 22.66 79.1446 22.66C77.0646 22.66 75.9286 20.98 75.9286 18.9C75.9286 16.82 77.0646 15.14 79.1446 15.14C79.8806 15.14 80.5846 15.492 80.9206 15.876V12.1H83.4326V22.5H80.9206ZM80.9206 19.844V17.94C80.7286 17.556 80.2966 17.268 79.8166 17.268C78.9526 17.268 78.4406 17.972 78.4406 18.9C78.4406 19.828 78.9526 20.516 79.8166 20.516C80.3126 20.516 80.7286 20.244 80.9206 19.844ZM89.1174 19.988H91.4374C91.1814 21.652 89.9334 22.66 88.0614 22.66C85.8534 22.66 84.3974 21.14 84.3974 18.9C84.3974 16.676 85.9334 15.14 88.0134 15.14C90.2214 15.14 91.4694 16.612 91.4694 18.756V19.38H86.8134C86.8934 20.244 87.3414 20.708 88.0614 20.708C88.5734 20.708 88.9734 20.484 89.1174 19.988ZM88.0134 17.092C87.4214 17.092 87.0214 17.46 86.8614 18.132H89.0374C89.0054 17.54 88.6374 17.092 88.0134 17.092ZM97.1238 22.5V21.924C96.7878 22.308 96.0838 22.66 95.3478 22.66C93.2678 22.66 92.1318 20.98 92.1318 18.9C92.1318 16.82 93.2678 15.14 95.3478 15.14C96.0838 15.14 96.7878 15.492 97.1238 15.876V12.1H99.6358V22.5H97.1238ZM97.1238 19.844V17.94C96.9318 17.556 96.4998 17.268 96.0198 17.268C95.1558 17.268 94.6438 17.972 94.6438 18.9C94.6438 19.828 95.1558 20.516 96.0198 20.516C96.5158 20.516 96.9318 20.244 97.1238 19.844Z" fill="white"/>
<path d="M118.94 14.122L119.647 14.8294L115.795 18.682C115.734 18.7441 115.66 18.7934 115.579 18.827C115.499 18.8607 115.412 18.878 115.324 18.878C115.237 18.878 115.15 18.8607 115.069 18.827C114.988 18.7934 114.915 18.7441 114.853 18.682L111 14.8294L111.707 14.1227L115.323 17.7387L118.94 14.122Z" fill="white"/>
<defs>
<linearGradient id="paint0_linear_73_7218" x1="0" y1="0" x2="131.647" y2="0" gradientUnits="userSpaceOnUse">
<stop stop-color="#272270"/>
<stop offset="1" stop-color="#3931AF"/>
</linearGradient>
</defs>
</svg>
