<svg width="106" height="33" viewBox="0 0 106 33" fill="none" xmlns="http://www.w3.org/2000/svg">
<rect width="106" height="33" rx="16.5" fill="url(#paint0_linear_4_747)"/>
<path d="M14.4566 22.5H11.9126V12.676H18.8246V14.9H14.4566V16.852H18.4726V19.028H14.4566V22.5ZM26.761 15.3V22.5H24.249V21.876C23.865 22.324 23.145 22.66 22.329 22.66C20.745 22.66 19.801 21.62 19.801 20.02V15.3H22.297V19.428C22.297 20.036 22.585 20.468 23.225 20.468C23.689 20.468 24.121 20.164 24.249 19.668V15.3H26.761ZM32.4346 19.988H34.7546C34.4986 21.652 33.2506 22.66 31.3786 22.66C29.1706 22.66 27.7146 21.14 27.7146 18.9C27.7146 16.676 29.2506 15.14 31.3306 15.14C33.5386 15.14 34.7866 16.612 34.7866 18.756V19.38H30.1306C30.2106 20.244 30.6586 20.708 31.3786 20.708C31.8906 20.708 32.2906 20.484 32.4346 19.988ZM31.3306 17.092C30.7386 17.092 30.3386 17.46 30.1786 18.132H32.3546C32.3226 17.54 31.9546 17.092 31.3306 17.092ZM38.2513 12.1V22.5H35.7393V12.1H38.2513ZM42.4654 14.884V12.676H51.1054V14.884H48.0654V22.5H45.4894V14.884H42.4654ZM55.2913 25.044H52.8113L53.8673 22.324L51.1793 15.3H53.7873L55.1633 19.396L56.5073 15.3H59.0033L55.2913 25.044ZM62.2825 21.924V25.044H59.7705V15.3H62.2825V15.876C62.6185 15.492 63.3225 15.14 64.0585 15.14C66.1385 15.14 67.2745 16.836 67.2745 18.9C67.2745 20.948 66.1385 22.66 64.0585 22.66C63.3225 22.66 62.6185 22.308 62.2825 21.924ZM62.2825 17.94V19.844C62.4745 20.244 62.9065 20.516 63.3865 20.516C64.2505 20.516 64.7625 19.828 64.7625 18.9C64.7625 17.972 64.2505 17.268 63.3865 17.268C62.8905 17.268 62.4745 17.556 62.2825 17.94ZM72.669 19.988H74.989C74.733 21.652 73.485 22.66 71.613 22.66C69.405 22.66 67.949 21.14 67.949 18.9C67.949 16.676 69.485 15.14 71.565 15.14C73.773 15.14 75.021 16.612 75.021 18.756V19.38H70.365C70.445 20.244 70.893 20.708 71.613 20.708C72.125 20.708 72.525 20.484 72.669 19.988ZM71.565 17.092C70.973 17.092 70.573 17.46 70.413 18.132H72.589C72.557 17.54 72.189 17.092 71.565 17.092Z" fill="white"/>
<path d="M94.1166 14.122L94.8233 14.8294L90.972 18.682C90.9103 18.7441 90.8369 18.7934 90.756 18.827C90.6752 18.8607 90.5885 18.878 90.501 18.878C90.4134 18.878 90.3267 18.8607 90.2459 18.827C90.1651 18.7934 90.0917 18.7441 90.03 18.682L86.1766 14.8294L86.8833 14.1227L90.5 17.7387L94.1166 14.122Z" fill="white"/>
<defs>
<linearGradient id="paint0_linear_4_747" x1="0" y1="0" x2="106" y2="0" gradientUnits="userSpaceOnUse">
<stop stop-color="#272270"/>
<stop offset="1" stop-color="#3931AF"/>
</linearGradient>
</defs>
</svg>
