<svg width="77" height="33" viewBox="0 0 77 33" fill="none" xmlns="http://www.w3.org/2000/svg">
<rect width="77" height="33" rx="16.5" fill="url(#paint0_linear_73_7222)"/>
<path d="M20.432 20.276V22.5H12.544V20.596L17.104 14.884H12.592V12.676H20.384V14.564L15.872 20.276H20.432ZM27.4359 20.276H28.4919C30.1239 20.276 31.0359 19.236 31.0359 17.588C31.0359 15.924 30.1239 14.884 28.4919 14.884H27.4359V20.276ZM24.9079 22.5V12.676H28.6199C31.7079 12.676 33.5799 14.596 33.5799 17.588C33.5799 20.58 31.7079 22.5 28.6199 22.5H24.9079ZM37.1059 15.3V22.5H34.5939V15.3H37.1059ZM37.2819 13.348C37.2819 14.164 36.6259 14.692 35.8579 14.692C35.0899 14.692 34.4339 14.164 34.4339 13.348C34.4339 12.516 35.0899 11.988 35.8579 11.988C36.6259 11.988 37.2819 12.516 37.2819 13.348ZM42.8049 19.988H45.1249C44.8689 21.652 43.6209 22.66 41.7489 22.66C39.5409 22.66 38.0849 21.14 38.0849 18.9C38.0849 16.676 39.6209 15.14 41.7009 15.14C43.9089 15.14 45.1569 16.612 45.1569 18.756V19.38H40.5009C40.5809 20.244 41.0289 20.708 41.7489 20.708C42.2609 20.708 42.6609 20.484 42.8049 19.988ZM41.7009 17.092C41.1089 17.092 40.7089 17.46 40.5489 18.132H42.7249C42.6929 17.54 42.3249 17.092 41.7009 17.092ZM45.7404 20.276H48.1884C48.3004 20.676 48.6524 20.9 49.1004 20.9C49.5164 20.9 49.8364 20.74 49.8364 20.404C49.8364 20.132 49.6284 20.036 49.2764 19.956L47.8684 19.668C46.6684 19.412 45.8844 18.836 45.8844 17.572C45.8844 16.036 47.2604 15.14 48.9564 15.14C50.9244 15.14 51.9964 16.052 52.2204 17.476H49.9004C49.8204 17.172 49.5964 16.9 49.0204 16.9C48.6524 16.9 48.3484 17.06 48.3484 17.38C48.3484 17.604 48.5084 17.716 48.8444 17.78L50.2684 18.116C51.5804 18.42 52.2844 19.108 52.2844 20.276C52.2844 21.812 50.8924 22.66 49.1324 22.66C47.2924 22.66 45.9644 21.828 45.7404 20.276ZM57.6643 19.988H59.9843C59.7283 21.652 58.4803 22.66 56.6083 22.66C54.4003 22.66 52.9443 21.14 52.9443 18.9C52.9443 16.676 54.4803 15.14 56.5603 15.14C58.7683 15.14 60.0163 16.612 60.0163 18.756V19.38H55.3603C55.4403 20.244 55.8883 20.708 56.6083 20.708C57.1203 20.708 57.5203 20.484 57.6643 19.988ZM56.5603 17.092C55.9683 17.092 55.5683 17.46 55.4083 18.132H57.5843C57.5523 17.54 57.1843 17.092 56.5603 17.092ZM63.4809 12.1V22.5H60.9689V12.1H63.4809Z" fill="white"/>
<defs>
<linearGradient id="paint0_linear_73_7222" x1="0" y1="0" x2="77" y2="0" gradientUnits="userSpaceOnUse">
<stop stop-color="#272270"/>
<stop offset="1" stop-color="#3931AF"/>
</linearGradient>
</defs>
</svg>
