<svg width="124" height="33" viewBox="0 0 124 33" fill="none" xmlns="http://www.w3.org/2000/svg">
<rect width="123.647" height="33" rx="16.5" fill="url(#paint0_linear_73_7225)"/>
<path d="M20.432 20.276V22.5H12.544V20.596L17.104 14.884H12.592V12.676H20.384V14.564L15.872 20.276H20.432ZM30.4248 12.676L27.2728 17.476L30.5848 22.5H27.7208L25.7688 19.476L23.8168 22.5H21.0168L24.3288 17.476L21.1768 12.676H24.0408L25.8168 15.476L27.6408 12.676H30.4248ZM38.8681 19.444H37.1081V22.5H34.5641V12.676H38.8681C40.9961 12.676 42.4361 13.876 42.4361 16.068C42.4361 18.244 40.9961 19.444 38.8681 19.444ZM39.9401 16.068C39.9401 15.316 39.5241 14.836 38.5961 14.836H37.1081V17.3H38.5961C39.5241 17.3 39.9401 16.804 39.9401 16.068ZM48.3009 15.268V17.684C47.9969 17.524 47.6609 17.46 47.2609 17.46C46.5729 17.46 46.1089 17.764 45.9809 18.276V22.5H43.4689V15.3H45.9809V15.94C46.3329 15.46 46.8929 15.14 47.6129 15.14C47.9329 15.14 48.1889 15.204 48.3009 15.268ZM53.5549 19.988H55.8749C55.6189 21.652 54.3709 22.66 52.4989 22.66C50.2909 22.66 48.8349 21.14 48.8349 18.9C48.8349 16.676 50.3709 15.14 52.4509 15.14C54.6589 15.14 55.9069 16.612 55.9069 18.756V19.38H51.2509C51.3309 20.244 51.7789 20.708 52.4989 20.708C53.0109 20.708 53.4109 20.484 53.5549 19.988ZM52.4509 17.092C51.8589 17.092 51.4589 17.46 51.2989 18.132H53.4749C53.4429 17.54 53.0749 17.092 52.4509 17.092ZM63.2115 16.004C63.6435 15.556 64.3795 15.14 65.4355 15.14C66.9395 15.14 67.8675 16.164 67.8675 17.78V22.5H65.3555V18.388C65.3555 17.78 65.0995 17.348 64.5395 17.348C64.1075 17.348 63.7395 17.62 63.6115 18.116V22.5H61.1155V18.388C61.1155 17.78 60.8595 17.348 60.2995 17.348C59.8675 17.348 59.4835 17.62 59.3715 18.116V22.5H56.8595V15.3H59.3715V15.892C59.7395 15.444 60.4275 15.14 61.2275 15.14C62.1395 15.14 62.7795 15.492 63.2115 16.004ZM71.6684 15.3V22.5H69.1564V15.3H71.6684ZM71.8444 13.348C71.8444 14.164 71.1884 14.692 70.4204 14.692C69.6524 14.692 68.9964 14.164 68.9964 13.348C68.9964 12.516 69.6524 11.988 70.4204 11.988C71.1884 11.988 71.8444 12.516 71.8444 13.348ZM79.9594 15.3V22.5H77.4474V21.876C77.0634 22.324 76.3434 22.66 75.5274 22.66C73.9434 22.66 72.9994 21.62 72.9994 20.02V15.3H75.4954V19.428C75.4954 20.036 75.7834 20.468 76.4234 20.468C76.8874 20.468 77.3194 20.164 77.4474 19.668V15.3H79.9594ZM87.649 16.004C88.081 15.556 88.817 15.14 89.873 15.14C91.377 15.14 92.305 16.164 92.305 17.78V22.5H89.793V18.388C89.793 17.78 89.537 17.348 88.977 17.348C88.545 17.348 88.177 17.62 88.049 18.116V22.5H85.553V18.388C85.553 17.78 85.297 17.348 84.737 17.348C84.305 17.348 83.921 17.62 83.809 18.116V22.5H81.297V15.3H83.809V15.892C84.177 15.444 84.865 15.14 85.665 15.14C86.577 15.14 87.217 15.492 87.649 16.004Z" fill="white"/>
<path d="M110.94 14.122L111.647 14.8294L107.795 18.682C107.734 18.7441 107.66 18.7934 107.579 18.827C107.499 18.8607 107.412 18.878 107.324 18.878C107.237 18.878 107.15 18.8607 107.069 18.827C106.988 18.7934 106.915 18.7441 106.853 18.682L103 14.8294L103.707 14.1227L107.323 17.7387L110.94 14.122Z" fill="white"/>
<defs>
<linearGradient id="paint0_linear_73_7225" x1="0" y1="0" x2="123.647" y2="0" gradientUnits="userSpaceOnUse">
<stop stop-color="#272270"/>
<stop offset="1" stop-color="#3931AF"/>
</linearGradient>
</defs>
</svg>
